<svg id="SvgjsSvg1026" width="288" height="288" xmlns="http://www.w3.org/2000/svg" version="1.1" xmlns:xlink="http://www.w3.org/1999/xlink" xmlns:svgjs="http://svgjs.com/svgjs"><circle id="SvgjsCircle1032" r="144" cx="144" cy="144" transform="matrix(0.7916,0,0,0.7916,30.009600000000006,30.009600000000006)" fill="#000000"></circle><defs id="SvgjsDefs1027"></defs><g id="SvgjsG1028" transform="matrix(0.4652,0,0,0.4652,77.0112,77.0111918395996)"><svg xmlns="http://www.w3.org/2000/svg" viewBox="0 0 24 24" width="288" height="288"><path fill="#ffffff" d="M7.998 0h-2.4c-.233 0-.348.118-.348.352v23.295c0 .235.115.352.348.352h2.401c.232 0 .349-.117.349-.352v-5.11l1.427-1.374 5.115 6.59c.137.165.299.247.485.247h3.097c.162 0 .255-.047.278-.141l-.07-.353-6.749-8.494 6.471-6.343c.121-.124.078-.493-.244-.493h-3.201c-.162 0-.324.083-.487.247l-6.123 6.273V.352C8.347.118 8.23 0 7.998 0z" class="color35B5E2 svgShape"></path></svg></g></svg>